# Blender3D v249 OBJ File: mk82.blend
# www.blender3d.org
v 0.683279 0.002422 0.002423
v 0.683279 -0.002422 -0.002423
v 0.895068 0.003187 0.003188
v 0.811598 0.103011 -0.103011
v 0.895068 -0.003188 -0.003188
v 0.895068 0.103011 -0.103011
v 0.683279 -0.002422 -0.002423
v 0.683279 0.002422 0.002423
v 0.895068 -0.003187 -0.003188
v 0.811598 -0.103011 0.103011
v 0.895068 0.003188 0.003188
v 0.895068 -0.103011 0.103011
v 0.683279 0.002423 -0.002422
v 0.683279 -0.002423 0.002422
v 0.895068 0.003188 -0.003187
v 0.811598 -0.103011 -0.103011
v 0.895068 -0.003188 0.003188
v 0.895068 -0.103011 -0.103011
v 0.683279 -0.002423 0.002422
v 0.683279 0.002423 -0.002422
v 0.895068 -0.003188 0.003187
v 0.811598 0.103011 0.103011
v 0.895068 0.003188 -0.003188
v 0.895068 0.103011 0.103011
v -0.099905 -0.092300 -0.038232
v -0.099905 -0.092300 0.038232
v -0.099905 -0.038232 0.092300
v -0.099905 0.038232 0.092300
v -0.099905 0.092300 0.038232
v -0.099905 0.092300 -0.038232
v -0.099905 0.038232 -0.092300
v -0.099905 -0.038232 -0.092300
v 0.099905 -0.092300 -0.038232
v 0.099905 -0.092300 0.038232
v 0.099905 -0.038232 0.092300
v 0.099905 0.038232 0.092300
v 0.099905 0.092300 0.038232
v 0.099905 0.092300 -0.038232
v 0.099905 0.038232 -0.092300
v 0.099905 -0.038232 -0.092300
v -0.268691 -0.083561 -0.034612
v -0.268691 -0.083561 0.034612
v -0.268691 -0.034612 0.083561
v -0.268691 0.034612 0.083561
v -0.268691 0.083561 0.034612
v -0.268691 0.083561 -0.034612
v -0.268691 0.034612 -0.083561
v -0.268691 -0.034612 -0.083561
v -0.394818 -0.063938 -0.026484
v -0.394818 -0.063938 0.026484
v -0.394818 -0.026484 0.063937
v -0.394818 0.026484 0.063937
v -0.394818 0.063937 0.026484
v -0.394818 0.063937 -0.026484
v -0.394818 0.026484 -0.063937
v -0.394818 -0.026484 -0.063937
v -0.481993 -0.047598 0.019716
v -0.481993 -0.047598 -0.019716
v -0.481993 -0.019716 0.047598
v -0.481993 0.019716 0.047598
v -0.481993 0.047598 0.019716
v -0.481993 0.047598 -0.019716
v -0.481993 0.019716 -0.047598
v -0.481993 -0.019716 -0.047598
v 0.552475 -0.071741 -0.029716
v 0.552475 -0.071741 0.029716
v 0.552475 -0.029716 0.071741
v 0.552475 0.029716 0.071741
v 0.552475 0.071741 0.029716
v 0.552475 0.071741 -0.029716
v 0.552475 0.029716 -0.071741
v 0.552475 -0.029716 -0.071741
v 0.928462 -0.022349 -0.009257
v 0.928462 -0.022349 0.009257
v 0.928462 -0.009257 0.022348
v 0.928462 0.009257 0.022348
v 0.928462 0.022348 0.009257
v 0.928462 0.022348 -0.009257
v 0.928462 0.009257 -0.022349
v 0.928462 -0.009257 -0.022349
v -0.481993 -0.030015 -0.012433
v -0.481993 -0.030015 0.012432
v -0.481993 -0.012433 0.030015
v -0.481993 0.012432 0.030015
v -0.481993 0.030015 0.012432
v -0.481993 0.030015 -0.012433
v -0.481993 0.012432 -0.030015
v -0.481993 -0.012433 -0.030015
v -0.550715 -0.030015 0.012432
v -0.550715 -0.030015 -0.012433
v -0.550715 -0.012433 0.030015
v -0.550715 0.012432 0.030015
v -0.550715 0.030015 0.012432
v -0.550715 0.030015 -0.012433
v -0.550715 0.012432 -0.030015
v -0.550715 -0.012433 -0.030015
v -0.567545 -0.013735 -0.005689
v -0.567545 -0.013735 0.005689
v -0.567545 -0.005689 0.013735
v -0.567545 0.005689 0.013735
v -0.567545 0.013735 0.005689
v -0.567545 0.013735 -0.005689
v -0.567545 0.005689 -0.013735
v -0.567545 -0.005689 -0.013735
v -0.567545 -0.000000 -0.000000
v 0.948611 -0.000000 -0.000000
vt 0.799642 0.500000
vt 0.879162 0.812911
vt 0.930889 0.812910
vt 0.930889 0.499999
vt 0.930889 0.500000
vt 0.879162 0.187090
vt 0.930889 0.187090
vt 0.930889 0.500001
vt 0.024501 0.522580
vt 0.024501 0.500000
vt 0.024501 0.477420
vt 0.024501 0.468067
vt 0.024501 0.531934
vt 0.951583 0.500000
vt 0.951583 0.536740
vt 0.964070 0.500000
vt 0.951583 0.463260
vt 0.951583 0.448042
vt 0.951583 0.551959
vt 0.034931 0.569782
vt 0.034931 0.549344
vt 0.034931 0.500000
vt 0.034931 0.450657
vt 0.034931 0.430218
vt 0.077518 0.569782
vt 0.077518 0.549344
vt 0.077518 0.500000
vt 0.077518 0.450657
vt 0.077518 0.430218
vt 0.077518 0.610661
vt 0.077518 0.578249
vt 0.077518 0.421751
vt 0.077518 0.389340
vt 0.718583 0.617940
vt 0.718583 0.666792
vt 0.718583 0.500000
vt 0.718583 0.382061
vt 0.718583 0.333209
vt 0.438123 0.651738
vt 0.438123 0.714590
vt 0.438123 0.500000
vt 0.438123 0.348263
vt 0.438123 0.285411
vt 0.131541 0.648649
vt 0.131541 0.605111
vt 0.131541 0.500000
vt 0.131541 0.394890
vt 0.131541 0.351352
vt 0.209702 0.694271
vt 0.209702 0.637371
vt 0.209702 0.500000
vt 0.209702 0.362630
vt 0.209702 0.305729
vt 0.314300 0.714590
vt 0.314300 0.651738
vt 0.314300 0.500000
vt 0.314300 0.348263
vt 0.314300 0.285411
vn -0.750405 0.467384 -0.467380
vn 1.000000 0.000008 0.000011
vn -0.750405 -0.467384 0.467380
vn 1.000000 -0.000008 -0.000011
vn -0.750405 -0.467380 -0.467384
vn 1.000000 0.000011 -0.000008
vn -0.750405 0.467380 0.467384
vn 1.000000 -0.000011 0.000008
vn -0.897183 -0.381024 -0.223182
vn -0.897183 -0.427259 0.111576
vn -1.000000 0.000000 0.000000
vn -0.897183 -0.223182 0.381024
vn -0.897183 0.111576 0.427259
vn -0.897183 0.381024 0.223182
vn -0.897183 0.427259 -0.111576
vn -0.897183 0.223182 -0.381024
vn -0.897183 -0.111576 -0.427259
vn 0.424329 -0.799951 0.424238
vn 0.424329 -0.865627 -0.265664
vn 1.000000 0.000000 0.000000
vn 0.424329 -0.265664 0.865627
vn 0.424329 0.424238 0.799951
vn 0.424329 0.865627 0.265664
vn 0.424329 0.799951 -0.424238
vn 0.424329 0.265664 -0.865627
vn 0.424329 -0.424238 -0.799951
vn -0.400983 -0.331339 -0.854030
vn -0.400983 -0.838191 -0.369579
vn -0.400983 0.369579 -0.838191
vn -0.400983 0.854030 -0.331339
vn -0.400983 0.838191 0.369579
vn -0.400983 0.331339 0.854030
vn -0.400983 -0.369579 0.838191
vn -0.400983 -0.854030 0.331339
vn -0.731284 -0.344737 -0.588488
vn -0.731284 -0.659902 -0.172369
vn -0.731284 0.172369 -0.659902
vn -0.731284 0.588488 -0.344737
vn -0.731284 0.659902 0.172369
vn -0.731284 0.344737 0.588488
vn -0.731284 -0.172369 0.659902
vn -0.731284 -0.588488 0.344737
vn -0.790765 -0.154668 -0.592242
vn -0.790765 -0.528153 -0.309366
vn -0.790765 0.309366 -0.528153
vn -0.790765 0.592242 -0.154668
vn -0.790765 0.528153 0.309366
vn -0.790765 0.154668 0.592242
vn -0.790765 -0.309366 0.528153
vn -0.790765 -0.592242 0.154668
vn 0.095065 -0.919889 -0.380444
vn 0.095065 -0.381420 -0.919492
vn 0.095065 0.380444 -0.919889
vn 0.095065 0.919492 -0.381420
vn 0.095065 0.919889 0.380444
vn 0.095065 0.381420 0.919492
vn 0.095065 -0.380444 0.919889
vn 0.095065 -0.919492 0.381420
vn 0.024323 -0.862575 -0.505295
vn 0.024323 -0.252632 -0.967223
vn 0.024323 0.505295 -0.862575
vn 0.024323 0.967223 -0.252632
vn 0.024323 0.862575 0.505295
vn 0.024323 0.252632 0.967223
vn 0.024323 -0.505295 0.862575
vn 0.024323 -0.967223 0.252632
vn -0.182470 -0.375896 -0.908505
vn -0.182470 -0.908200 -0.376568
vn -0.182470 0.376568 -0.908200
vn -0.182470 0.908475 -0.375896
vn -0.182470 0.908200 0.376568
vn -0.182470 0.375896 0.908475
vn -0.182470 -0.376568 0.908200
vn -0.182470 -0.908475 0.375896
vn -0.111209 -0.379620 -0.918424
vn -0.111209 -0.917844 -0.380963
vn -0.111209 0.380963 -0.917844
vn -0.111209 0.918424 -0.379620
vn -0.111209 0.917844 0.380963
vn -0.111209 0.379620 0.918424
vn -0.111209 -0.380963 0.917844
vn -0.111209 -0.918424 0.379620
vn -0.027711 -0.505234 -0.862514
vn -0.027711 -0.967162 -0.252602
vn -0.027711 0.252602 -0.967162
vn -0.027711 0.862514 -0.505234
vn -0.027711 0.967162 0.252602
vn -0.027711 0.505234 0.862514
vn -0.027711 -0.252602 0.967162
vn -0.027711 -0.862514 0.505234
vn 0.000000 0.728641 -0.684896
vn -0.005109 0.726624 -0.687016
vn 0.000000 -0.684896 0.728640
vn -0.005109 -0.687017 0.726624
vn 0.000000 -0.728641 0.684896
vn -0.005109 -0.726624 0.687016
vn -0.005109 0.687016 -0.726624
vn 0.000000 0.684896 -0.728641
vn 0.000000 0.684896 0.728641
vn -0.005109 0.687016 0.726624
vn 0.000000 -0.728640 -0.684896
vn -0.005109 -0.726624 -0.687016
vn 0.000000 -0.684896 -0.728641
vn -0.005109 -0.687016 -0.726624
vn -0.005109 0.726624 0.687016
vn 0.000000 0.728641 0.684896
usemtl Material_skin.png
s off
f 2/1/1 1/1/1 4/2/1
f 6/3/2 3/4/2 5/5/2
f 10/6/3 8/1/3 7/1/3
f 12/7/4 9/8/4 11/5/4
f 14/1/5 13/1/5 16/2/5
f 18/3/6 15/4/6 17/5/6
f 22/6/7 20/1/7 19/1/7
f 24/7/8 21/8/8 23/5/8
s 1
f 97/9/9 98/10/10 105/10/11
f 98/10/10 99/11/12 105/10/11
f 99/11/12 100/12/13 105/10/11
f 100/12/13 101/11/14 105/10/11
f 101/11/14 102/10/15 105/10/11
f 102/10/15 103/9/16 105/10/11
f 103/9/16 104/13/17 105/10/11
f 104/13/17 97/9/9 105/10/11
f 74/14/18 73/15/19 106/16/20
f 75/17/21 74/14/18 106/16/20
f 76/18/22 75/17/21 106/16/20
f 77/17/23 76/18/22 106/16/20
f 78/14/24 77/17/23 106/16/20
f 79/15/25 78/14/24 106/16/20
f 80/19/26 79/15/25 106/16/20
f 73/15/19 80/19/26 106/16/20
f 96/20/27 90/21/28 97/9/9
f 96/20/27 97/9/9 104/13/17
f 95/21/29 96/20/27 104/13/17
f 95/21/29 104/13/17 103/9/16
f 94/22/30 95/21/29 103/9/16
f 94/22/30 103/9/16 102/10/15
f 93/23/31 94/22/30 102/10/15
f 93/23/31 102/10/15 101/11/14
f 92/24/32 93/23/31 101/11/14
f 92/24/32 101/11/14 100/12/13
f 91/23/33 92/24/32 100/12/13
f 91/23/33 100/12/13 99/11/12
f 89/22/34 91/23/33 99/11/12
f 89/22/34 99/11/12 98/10/10
f 90/21/28 89/22/34 98/10/10
f 90/21/28 98/10/10 97/9/9
f 88/25/35 81/26/36 90/21/28
f 88/25/35 90/21/28 96/20/27
f 87/26/37 88/25/35 96/20/27
f 87/26/37 96/20/27 95/21/29
f 86/27/38 87/26/37 95/21/29
f 86/27/38 95/21/29 94/22/30
f 85/28/39 86/27/38 94/22/30
f 85/28/39 94/22/30 93/23/31
f 84/29/40 85/28/39 93/23/31
f 84/29/40 93/23/31 92/24/32
f 83/28/41 84/29/40 92/24/32
f 83/28/41 92/24/32 91/23/33
f 82/27/42 83/28/41 91/23/33
f 82/27/42 91/23/33 89/22/34
f 81/26/36 82/27/42 89/22/34
f 81/26/36 89/22/34 90/21/28
f 64/30/43 58/31/44 81/26/36
f 64/30/43 81/26/36 88/25/35
f 63/31/45 64/30/43 88/25/35
f 63/31/45 88/25/35 87/26/37
f 62/27/46 63/31/45 87/26/37
f 62/27/46 87/26/37 86/27/38
f 61/32/47 62/27/46 86/27/38
f 61/32/47 86/27/38 85/28/39
f 60/33/48 61/32/47 85/28/39
f 60/33/48 85/28/39 84/29/40
f 59/32/49 60/33/48 84/29/40
f 59/32/49 84/29/40 83/28/41
f 57/27/50 59/32/49 83/28/41
f 57/27/50 83/28/41 82/27/42
f 58/31/44 57/27/50 82/27/42
f 58/31/44 82/27/42 81/26/36
f 65/34/51 72/35/52 80/19/26
f 65/34/51 80/19/26 73/15/19
f 72/35/52 71/34/53 79/15/25
f 72/35/52 79/15/25 80/19/26
f 71/34/53 70/36/54 78/14/24
f 71/34/53 78/14/24 79/15/25
f 70/36/54 69/37/55 77/17/23
f 70/36/54 77/17/23 78/14/24
f 69/37/55 68/38/56 76/18/22
f 69/37/55 76/18/22 77/17/23
f 68/38/56 67/37/57 75/17/21
f 68/38/56 75/17/21 76/18/22
f 67/37/57 66/36/58 74/14/18
f 67/37/57 74/14/18 75/17/21
f 66/36/58 65/34/51 73/15/19
f 66/36/58 73/15/19 74/14/18
f 33/39/59 40/40/60 72/35/52
f 33/39/59 72/35/52 65/34/51
f 40/40/60 39/39/61 71/34/53
f 40/40/60 71/34/53 72/35/52
f 39/39/61 38/41/62 70/36/54
f 39/39/61 70/36/54 71/34/53
f 38/41/62 37/42/63 69/37/55
f 38/41/62 69/37/55 70/36/54
f 37/42/63 36/43/64 68/38/56
f 37/42/63 68/38/56 69/37/55
f 36/43/64 35/42/65 67/37/57
f 36/43/64 67/37/57 68/38/56
f 35/42/65 34/41/66 66/36/58
f 35/42/65 66/36/58 67/37/57
f 34/41/66 33/39/59 65/34/51
f 34/41/66 65/34/51 66/36/58
f 56/44/67 49/45/68 58/31/44
f 56/44/67 58/31/44 64/30/43
f 55/45/69 56/44/67 64/30/43
f 55/45/69 64/30/43 63/31/45
f 54/46/70 55/45/69 63/31/45
f 54/46/70 63/31/45 62/27/46
f 53/47/71 54/46/70 62/27/46
f 53/47/71 62/27/46 61/32/47
f 52/48/72 53/47/71 61/32/47
f 52/48/72 61/32/47 60/33/48
f 51/47/73 52/48/72 60/33/48
f 51/47/73 60/33/48 59/32/49
f 50/46/74 51/47/73 59/32/49
f 50/46/74 59/32/49 57/27/50
f 49/45/68 50/46/74 57/27/50
f 49/45/68 57/27/50 58/31/44
f 48/49/75 41/50/76 49/45/68
f 48/49/75 49/45/68 56/44/67
f 47/50/77 48/49/75 56/44/67
f 47/50/77 56/44/67 55/45/69
f 46/51/78 47/50/77 55/45/69
f 46/51/78 55/45/69 54/46/70
f 45/52/79 46/51/78 54/46/70
f 45/52/79 54/46/70 53/47/71
f 44/53/80 45/52/79 53/47/71
f 44/53/80 53/47/71 52/48/72
f 43/52/81 44/53/80 52/48/72
f 43/52/81 52/48/72 51/47/73
f 42/51/82 43/52/81 51/47/73
f 42/51/82 51/47/73 50/46/74
f 41/50/76 42/51/82 50/46/74
f 41/50/76 50/46/74 49/45/68
f 32/54/83 25/55/84 41/50/76
f 32/54/83 41/50/76 48/49/75
f 31/55/85 32/54/83 48/49/75
f 31/55/85 48/49/75 47/50/77
f 30/56/86 31/55/85 47/50/77
f 30/56/86 47/50/77 46/51/78
f 29/57/87 30/56/86 46/51/78
f 29/57/87 46/51/78 45/52/79
f 28/58/88 29/57/87 45/52/79
f 28/58/88 45/52/79 44/53/80
f 27/57/89 28/58/88 44/53/80
f 27/57/89 44/53/80 43/52/81
f 26/56/90 27/57/89 43/52/81
f 26/56/90 43/52/81 42/51/82
f 25/55/84 26/56/90 42/51/82
f 25/55/84 42/51/82 41/50/76
f 33/39/59 25/55/84 32/54/83
f 33/39/59 32/54/83 40/40/60
f 31/55/85 39/39/61 40/40/60
f 31/55/85 40/40/60 32/54/83
f 30/56/86 38/41/62 39/39/61
f 30/56/86 39/39/61 31/55/85
f 29/57/87 37/42/63 38/41/62
f 29/57/87 38/41/62 30/56/86
f 28/58/88 36/43/64 37/42/63
f 28/58/88 37/42/63 29/57/87
f 27/57/89 35/42/65 36/43/64
f 27/57/89 36/43/64 28/58/88
f 26/56/90 34/41/66 35/42/65
f 26/56/90 35/42/65 27/57/89
f 25/55/84 33/39/59 34/41/66
f 25/55/84 34/41/66 26/56/90
s off
f 24/7/91 23/5/91 22/6/91
f 23/5/92 20/1/92 22/6/92
f 24/7/93 22/6/93 21/8/93
f 22/6/94 19/1/94 21/8/94
f 18/3/95 17/5/95 16/2/95
f 17/5/96 14/1/96 16/2/96
f 13/1/97 15/4/97 16/2/97
f 15/4/98 18/3/98 16/2/98
f 12/7/99 11/5/99 10/6/99
f 11/5/100 8/1/100 10/6/100
f 12/7/101 10/6/101 9/8/101
f 10/6/102 7/1/102 9/8/102
f 6/3/103 5/5/103 4/2/103
f 5/5/104 2/1/104 4/2/104
f 1/1/105 3/4/105 4/2/105
f 3/4/106 6/3/106 4/2/106
